<?xml version="1.0" standalone="no"?>
<!DOCTYPE svg PUBLIC "-//W3C//DTD SVG 20010904//EN"
 "http://www.w3.org/TR/2001/REC-SVG-20010904/DTD/svg10.dtd">
<svg version="1.0" xmlns="http://www.w3.org/2000/svg"
 width="250.000000pt" height="123.000000pt" viewBox="0 0 250.000000 123.000000"
 preserveAspectRatio="xMidYMid meet">

    <g transform="translate(0.000000,123.000000) scale(0.100000,-0.100000)"
    fill="#000000" stroke="none">

        <path d="M904 1130 c-70 -10 -120 -27 -181 -61 -57 -33 -173 -151 -173 -177 0
        -9 15 -27 33 -39 17 -12 49 -34 69 -49 l37 -27 65 60 c35 34 79 68 98 78 90
        46 107 49 337 54 l224 6 15 43 c7 23 31 60 53 82 l39 39 -283 -1 c-155 0 -305
        -4 -333 -8z"/>

        <path d="M1625 1130 c-75 -19 -106 -42 -146 -107 -23 -37 -24 -44 -24 -258 l0
        -220 63 -3 62 -3 0 168 c0 144 3 173 18 203 37 69 42 70 465 70 l377 0 0 74
        c0 58 -3 75 -16 80 -23 9 -764 5 -799 -4z"/>

        <path d="M115 1096 c-16 -7 -39 -23 -50 -36 -19 -21 -20 -36 -20 -484 l0 -461
        90 0 90 0 1 343 c1 189 4 346 7 349 3 2 47 -29 99 -69 51 -41 105 -83 121 -92
        l27 -18 0 58 c0 33 7 88 15 123 9 35 14 65 13 66 -5 4 -95 73 -200 153 -105
        78 -142 92 -193 68z"/>

        <path d="M536 823 c-10 -39 -16 -81 -18 -153 l-3 -75 186 -145 c456 -356 461
        -360 502 -360 50 0 102 23 122 54 15 22 17 63 18 313 l2 288 -163 2 -163 2 3
        -72 3 -72 70 -3 70 -3 -3 -99 c-2 -55 -7 -100 -12 -100 -8 0 -269 193 -518
        384 -41 31 -78 56 -82 56 -5 0 -11 -8 -14 -17z"/>

        <path d="M1617 703 c-4 -3 -7 -42 -7 -85 l0 -78 333 2 332 3 3 60 c2 32 1 69
        -3 82 l-5 23 -324 0 c-177 0 -326 -3 -329 -7z"/>

        <path d="M2306 695 c-3 -9 -6 -93 -6 -187 l0 -171 -36 -33 -35 -34 -395 0
        -394 0 0 -80 0 -80 413 0 c385 0 415 2 455 20 49 22 89 62 108 106 9 21 13 92
        14 240 1 115 1 214 1 219 -1 6 -27 12 -60 13 -47 3 -60 0 -65 -13z"/>
        
    </g>
    
</svg>
